<svg xmlns="http://www.w3.org/2000/svg" width="2200" height="1300" viewBox="0 0 2200 1300"><defs>
    <linearGradient id="blue" x1="0" y1="0" x2="1" y2="1"><stop stop-color="#EAF6FF"/><stop offset="1" stop-color="#B8DCFF"/></linearGradient>
    <linearGradient id="green" x1="0" y1="0" x2="1" y2="1"><stop stop-color="#E1FFE6"/><stop offset="1" stop-color="#A8F4B0"/></linearGradient>
    <linearGradient id="btn" x1="0" y1="0" x2="1" y2="1"><stop stop-color="#0A74FF"/><stop offset="1" stop-color="#1DB9F4"/></linearGradient>
    <filter id="shadow" x="-30%" y="-30%" width="160%" height="160%"><feDropShadow dx="0" dy="18" stdDeviation="24" flood-color="#0A2B4D" flood-opacity="0.12"/></filter></defs>
<rect width="2200" height="1300" fill="#FFFFFF"/>
<g filter="url(#shadow)"><rect x="100" y="110" width="950" height="1080" rx="70" fill="url(#btn)"/><rect x="1150" y="110" width="950" height="1080" rx="70" fill="#FFFFFF" stroke="#18A8F7" stroke-width="5"/></g>
<text x="185" y="240" font-size="64" font-weight="650" fill="#FFFFFF" font-family="Inter,Arial,sans-serif">Starter</text><text x="185" y="390" font-size="160" font-weight="700" fill="#FFFFFF" font-family="Inter,Arial,sans-serif">$19</text><text x="520" y="385" font-size="44" fill="#EAF7FF" font-family="Inter,Arial,sans-serif">/month</text>
<text x="1235" y="240" font-size="64" font-weight="650" fill="#0B1739" font-family="Inter,Arial,sans-serif">Pro</text><text x="1235" y="390" font-size="160" font-weight="700" fill="#0B1739" font-family="Inter,Arial,sans-serif">$59</text><text x="1565" y="385" font-size="44" fill="#59657A" font-family="Inter,Arial,sans-serif">/month</text>
<rect x="150" y="545" width="850" height="480" rx="50" fill="#FFFFFF"/><rect x="1200" y="545" width="850" height="480" rx="50" fill="#F9FCFF"/>
<text x="205" y="630" font-size="48" font-weight="650" fill="#0B1739" font-family="Inter,Arial,sans-serif">What's included</text><text x="1255" y="630" font-size="48" font-weight="650" fill="#0B1739" font-family="Inter,Arial,sans-serif">What's included</text>
<circle cx="215" cy="702" r="22" fill="#E3F4FF"/><path d="M204 702 l9 10 l18 -22" stroke="#1688F8" stroke-width="7" fill="none" stroke-linecap="round"/><text x="260" y="710" font-size="36" fill="#58677E" font-family="Inter,Arial,sans-serif">Up to 5 team members</text><circle cx="215" cy="772" r="22" fill="#E3F4FF"/><path d="M204 772 l9 10 l18 -22" stroke="#1688F8" stroke-width="7" fill="none" stroke-linecap="round"/><text x="260" y="780" font-size="36" fill="#58677E" font-family="Inter,Arial,sans-serif">2 project boards</text><circle cx="215" cy="842" r="22" fill="#E3F4FF"/><path d="M204 842 l9 10 l18 -22" stroke="#1688F8" stroke-width="7" fill="none" stroke-linecap="round"/><text x="260" y="850" font-size="36" fill="#58677E" font-family="Inter,Arial,sans-serif">Basic sync updates</text><circle cx="215" cy="912" r="22" fill="#E3F4FF"/><path d="M204 912 l9 10 l18 -22" stroke="#1688F8" stroke-width="7" fill="none" stroke-linecap="round"/><text x="260" y="920" font-size="36" fill="#58677E" font-family="Inter,Arial,sans-serif">7-day activity history</text><circle cx="215" cy="982" r="22" fill="#E3F4FF"/><path d="M204 982 l9 10 l18 -22" stroke="#1688F8" stroke-width="7" fill="none" stroke-linecap="round"/><text x="260" y="990" font-size="36" fill="#58677E" font-family="Inter,Arial,sans-serif">Email support</text><circle cx="1265" cy="702" r="22" fill="#E3F4FF"/><path d="M1254 702 l9 10 l18 -22" stroke="#1688F8" stroke-width="7" fill="none" stroke-linecap="round"/><text x="1310" y="710" font-size="36" fill="#58677E" font-family="Inter,Arial,sans-serif">Unlimited team members</text><circle cx="1265" cy="772" r="22" fill="#E3F4FF"/><path d="M1254 772 l9 10 l18 -22" stroke="#1688F8" stroke-width="7" fill="none" stroke-linecap="round"/><text x="1310" y="780" font-size="36" fill="#58677E" font-family="Inter,Arial,sans-serif">Unlimited boards &amp; tasks</text><circle cx="1265" cy="842" r="22" fill="#E3F4FF"/><path d="M1254 842 l9 10 l18 -22" stroke="#1688F8" stroke-width="7" fill="none" stroke-linecap="round"/><text x="1310" y="850" font-size="36" fill="#58677E" font-family="Inter,Arial,sans-serif">Smart status automation</text><circle cx="1265" cy="912" r="22" fill="#E3F4FF"/><path d="M1254 912 l9 10 l18 -22" stroke="#1688F8" stroke-width="7" fill="none" stroke-linecap="round"/><text x="1310" y="920" font-size="36" fill="#58677E" font-family="Inter,Arial,sans-serif">Full activity history</text><circle cx="1265" cy="982" r="22" fill="#E3F4FF"/><path d="M1254 982 l9 10 l18 -22" stroke="#1688F8" stroke-width="7" fill="none" stroke-linecap="round"/><text x="1310" y="990" font-size="36" fill="#58677E" font-family="Inter,Arial,sans-serif">Slack &amp; Calendar integration</text><rect x="175" y="1055" width="800" height="95" rx="48" fill="#1596F3"/><rect x="1225" y="1055" width="800" height="95" rx="48" fill="#1596F3"/><text x="480" y="1117" font-size="38" fill="#FFFFFF" font-family="Inter,Arial,sans-serif">Get started</text><text x="1530" y="1117" font-size="38" fill="#FFFFFF" font-family="Inter,Arial,sans-serif">Get started</text></svg>